<svg xmlns="http://www.w3.org/2000/svg" viewBox="0 0 36 16"><svg width="16" height="9" viewBox="0 0 16 9" fill="none" x="0" y="3.5">
<path d="M8 1.5C6.14348 1.5 4.36301 2.2375 3.05025 3.55025C1.7375 4.86301 1 6.64348 1 8.5C1 8.63261 0.947322 8.75979 0.853553 8.85355C0.759785 8.94732 0.632608 9 0.5 9C0.367392 9 0.240215 8.94732 0.146447 8.85355C0.0526784 8.75979 0 8.63261 0 8.5C0 6.37827 0.842855 4.34344 2.34315 2.84315C3.84344 1.34285 5.87827 0.5 8 0.5C10.1217 0.5 12.1566 1.34285 13.6569 2.84315C15.1571 4.34344 16 6.37827 16 8.5C16 8.63261 15.9473 8.75979 15.8536 8.85355C15.7598 8.94732 15.6326 9 15.5 9C15.3674 9 15.2402 8.94732 15.1464 8.85355C15.0527 8.75979 15 8.63261 15 8.5C15 6.64348 14.2625 4.86301 12.9497 3.55025C11.637 2.2375 9.85652 1.5 8 1.5ZM8 3.5C6.67392 3.5 5.40215 4.02678 4.46447 4.96447C3.52678 5.90215 3 7.17392 3 8.5C3 8.63261 2.94732 8.75979 2.85355 8.85355C2.75979 8.94732 2.63261 9 2.5 9C2.36739 9 2.24021 8.94732 2.14645 8.85355C2.05268 8.75979 2 8.63261 2 8.5C2 7.71207 2.15519 6.93185 2.45672 6.2039C2.75825 5.47595 3.20021 4.81451 3.75736 4.25736C4.31451 3.70021 4.97595 3.25825 5.7039 2.95672C6.43185 2.65519 7.21207 2.5 8 2.5C8.78793 2.5 9.56815 2.65519 10.2961 2.95672C11.0241 3.25825 11.6855 3.70021 12.2426 4.25736C12.7998 4.81451 13.2417 5.47595 13.5433 6.2039C13.8448 6.93185 14 7.71207 14 8.5C14 8.63261 13.9473 8.75979 13.8536 8.85355C13.7598 8.94732 13.6326 9 13.5 9C13.3674 9 13.2402 8.94732 13.1464 8.85355C13.0527 8.75979 13 8.63261 13 8.5C13 7.17392 12.4732 5.90215 11.5355 4.96447C10.5979 4.02678 9.32608 3.5 8 3.5ZM8 5.5C7.20435 5.5 6.44129 5.81607 5.87868 6.37868C5.31607 6.94129 5 7.70435 5 8.5C5 8.63261 4.94732 8.75979 4.85355 8.85355C4.75979 8.94732 4.63261 9 4.5 9C4.36739 9 4.24021 8.94732 4.14645 8.85355C4.05268 8.75979 4 8.63261 4 8.5C4 7.43913 4.42143 6.42172 5.17157 5.67157C5.92172 4.92143 6.93913 4.5 8 4.5C9.06087 4.5 10.0783 4.92143 10.8284 5.67157C11.5786 6.42172 12 7.43913 12 8.5C12 8.63261 11.9473 8.75979 11.8536 8.85355C11.7598 8.94732 11.6326 9 11.5 9C11.3674 9 11.2402 8.94732 11.1464 8.85355C11.0527 8.75979 11 8.63261 11 8.5C11 7.70435 10.6839 6.94129 10.1213 6.37868C9.55871 5.81607 8.79565 5.5 8 5.5ZM8 7.5C7.73478 7.5 7.48043 7.60536 7.29289 7.79289C7.10536 7.98043 7 8.23478 7 8.5C7 8.63261 6.94732 8.75979 6.85355 8.85355C6.75979 8.94732 6.63261 9 6.5 9C6.36739 9 6.24021 8.94732 6.14645 8.85355C6.05268 8.75979 6 8.63261 6 8.5C6 7.96957 6.21071 7.46086 6.58579 7.08579C6.96086 6.71071 7.46957 6.5 8 6.5C8.53043 6.5 9.03914 6.71071 9.41421 7.08579C9.78929 7.46086 10 7.96957 10 8.5C10 8.63261 9.94732 8.75979 9.85355 8.85355C9.75979 8.94732 9.63261 9 9.5 9C9.36739 9 9.24021 8.94732 9.14645 8.85355C9.05268 8.75979 9 8.63261 9 8.5C9 8.23478 8.89464 7.98043 8.70711 7.79289C8.51957 7.60536 8.26522 7.5 8 7.5Z" fill="#212529"/>
</svg><svg width="12" height="16" viewBox="0 0 12 16" fill="none" x="16" y="0">
<path fill-rule="evenodd" clip-rule="evenodd" d="M5.21 0.8C5.69 0.295 6 0 6 0C6.109 0.363 6.234 0.708 6.371 1.038C7.183 2.984 8.444 4.388 9.568 5.638C10.878 7.096 12 8.345 12 10C12 11.5913 11.3679 13.1174 10.2426 14.2426C9.11742 15.3679 7.5913 16 6 16C4.4087 16 2.88258 15.3679 1.75736 14.2426C0.632141 13.1174 2.37122e-08 11.5913 0 10C0 6.668 3.58 2.517 5.21 0.8ZM5.623 1.821C4.98081 2.51594 4.37051 3.23968 3.794 3.99C3.068 4.94 2.358 5.998 1.834 7.06C1.304 8.133 1 9.138 1 10C1 11.3261 1.52678 12.5979 2.46447 13.5355C3.40215 14.4732 4.67392 15 6 15C7.32608 15 8.59785 14.4732 9.53553 13.5355C10.4732 12.5979 11 11.3261 11 10C11 8.799 10.204 7.843 8.819 6.3L8.789 6.268C7.75 5.11 6.5 3.72 5.623 1.82V1.821Z" fill="#212529"/>
</svg><svg width="8" height="16" viewBox="0 0 8 16" fill="none" x="28" y="0">
<path d="M1.5 2.5C1.5 1.83696 1.76339 1.20107 2.23223 0.732233C2.70108 0.263392 3.33696 0 4 0C4.66304 0 5.29893 0.263392 5.76777 0.732233C6.23661 1.20107 6.5 1.83696 6.5 2.5V10.05C6.98234 10.5423 7.3086 11.166 7.43788 11.843C7.56715 12.5199 7.49369 13.22 7.2267 13.8554C6.95971 14.4907 6.51108 15.0332 5.93707 15.4146C5.36305 15.796 4.68919 15.9995 4 15.9995C3.31081 15.9995 2.63695 15.796 2.06294 15.4146C1.48892 15.0332 1.04029 14.4907 0.773299 13.8554C0.506311 13.22 0.43285 12.5199 0.562128 11.843C0.691405 11.166 1.01767 10.5423 1.5 10.05V2.5ZM4 1C3.60218 1 3.22065 1.15804 2.93934 1.43934C2.65804 1.72064 2.5 2.10218 2.5 2.5V10.487L2.333 10.637C1.95557 10.9745 1.68953 11.4187 1.57007 11.9107C1.45062 12.4028 1.48338 12.9195 1.66403 13.3925C1.84468 13.8655 2.1647 14.2725 2.58174 14.5597C2.99877 14.8468 3.49317 15.0005 3.9995 15.0005C4.50583 15.0005 5.00023 14.8468 5.41727 14.5597C5.83431 14.2725 6.15432 13.8655 6.33497 13.3925C6.51562 12.9195 6.54839 12.4028 6.42893 11.9107C6.30947 11.4187 6.04343 10.9745 5.666 10.637L5.5 10.487V2.5C5.5 2.10218 5.34197 1.72064 5.06066 1.43934C4.77936 1.15804 4.39783 1 4 1Z" fill="#212529"/>
</svg></svg>