<svg width="16" height="16" viewBox="0 0 16 16" fill="none" xmlns="http://www.w3.org/2000/svg">
<g clip-path="url(#clip0_32_46136)">
<path d="M3.05005 3.04999C2.39996 3.70001 1.88428 4.47172 1.53245 5.32105C1.18063 6.17037 0.999542 7.08068 0.999542 7.99999C0.999542 8.91931 1.18063 9.82962 1.53245 10.6789C1.88428 11.5283 2.39996 12.3 3.05005 12.95C3.14113 13.0443 3.19152 13.1706 3.19038 13.3017C3.18925 13.4328 3.13666 13.5582 3.04396 13.6509C2.95125 13.7436 2.82585 13.7962 2.69475 13.7973C2.56365 13.7985 2.43735 13.7481 2.34305 13.657C1.60014 12.9141 1.01082 12.0322 0.608759 11.0616C0.206696 10.0909 -0.000244141 9.0506 -0.000244141 7.99999C-0.000244141 6.94938 0.206696 5.90906 0.608759 4.93843C1.01082 3.9678 1.60014 3.08587 2.34305 2.34299C2.43735 2.25192 2.56365 2.20152 2.69475 2.20266C2.82585 2.2038 2.95125 2.25638 3.04396 2.34909C3.13666 2.44179 3.18925 2.5672 3.19038 2.69829C3.19152 2.82939 3.14113 2.95569 3.05005 3.04999ZM5.17205 5.17199C4.42216 5.92211 4.0009 6.93934 4.0009 7.99999C4.0009 9.06065 4.42216 10.0779 5.17205 10.828C5.21854 10.8745 5.25541 10.9297 5.28057 10.9904C5.30573 11.0512 5.31868 11.1163 5.31868 11.182C5.31868 11.2477 5.30573 11.3128 5.28057 11.3736C5.25541 11.4343 5.21854 11.4895 5.17205 11.536C5.12556 11.5825 5.07037 11.6194 5.00963 11.6445C4.94889 11.6697 4.88379 11.6826 4.81805 11.6826C4.7523 11.6826 4.6872 11.6697 4.62646 11.6445C4.56572 11.6194 4.51054 11.5825 4.46405 11.536C3.99961 11.0717 3.6312 10.5204 3.37984 9.91372C3.12849 9.307 2.99912 8.65671 2.99912 7.99999C2.99912 7.34327 3.12849 6.69299 3.37984 6.08627C3.6312 5.47956 3.99961 4.9283 4.46405 4.46399C4.55793 4.37011 4.68527 4.31736 4.81805 4.31736C4.95082 4.31736 5.07816 4.37011 5.17205 4.46399C5.26593 4.55788 5.31868 4.68522 5.31868 4.81799C5.31868 4.95077 5.26593 5.07811 5.17205 5.17199V5.17199ZM10.828 4.46399C10.8745 4.41743 10.9297 4.38049 10.9904 4.35528C11.0512 4.33008 11.1163 4.3171 11.182 4.3171C11.2478 4.3171 11.3129 4.33008 11.3737 4.35528C11.4344 4.38049 11.4896 4.41743 11.536 4.46399C12.0005 4.9283 12.3689 5.47956 12.6203 6.08627C12.8716 6.69299 13.001 7.34327 13.001 7.99999C13.001 8.65671 12.8716 9.307 12.6203 9.91372C12.3689 10.5204 12.0005 11.0717 11.536 11.536C11.4896 11.5825 11.4344 11.6194 11.3736 11.6445C11.3129 11.6697 11.2478 11.6826 11.182 11.6826C11.1163 11.6826 11.0512 11.6697 10.9905 11.6445C10.9297 11.6194 10.8745 11.5825 10.828 11.536C10.7816 11.4895 10.7447 11.4343 10.7195 11.3736C10.6944 11.3128 10.6814 11.2477 10.6814 11.182C10.6814 11.1163 10.6944 11.0512 10.7195 10.9904C10.7447 10.9297 10.7816 10.8745 10.828 10.828C11.5779 10.0779 11.9992 9.06065 11.9992 7.99999C11.9992 6.93934 11.5779 5.92211 10.828 5.17199C10.7815 5.12555 10.7445 5.07037 10.7193 5.00963C10.6941 4.94888 10.6812 4.88376 10.6812 4.81799C10.6812 4.75223 10.6941 4.68711 10.7193 4.62636C10.7445 4.56562 10.7815 4.51044 10.828 4.46399ZM12.95 2.34399C13.0438 2.25026 13.171 2.1976 13.3035 2.1976C13.4361 2.1976 13.5633 2.25026 13.657 2.34399C15.1571 3.84426 15.9998 5.87894 15.9998 8.00049C15.9998 10.1221 15.1571 12.1567 13.657 13.657C13.5627 13.7481 13.4364 13.7985 13.3053 13.7973C13.1742 13.7962 13.0488 13.7436 12.9561 13.6509C12.8634 13.5582 12.8108 13.4328 12.8097 13.3017C12.8086 13.1706 12.859 13.0443 12.95 12.95C13.6001 12.3 14.1158 11.5283 14.4676 10.6789C14.8195 9.82962 15.0006 8.91931 15.0006 7.99999C15.0006 7.08068 14.8195 6.17037 14.4676 5.32105C14.1158 4.47172 13.6001 3.70001 12.95 3.04999C12.8563 2.95623 12.8037 2.82908 12.8037 2.69649C12.8037 2.56391 12.8563 2.43676 12.95 2.34299V2.34399ZM6.00005 7.99999C6.00014 7.62595 6.10513 7.25943 6.30308 6.94205C6.50104 6.62468 6.78402 6.36918 7.1199 6.20458C7.45578 6.03997 7.83109 5.97285 8.2032 6.01085C8.57531 6.04884 8.92931 6.19043 9.22499 6.41952C9.52067 6.64861 9.74618 6.95603 9.87591 7.30686C10.0056 7.65769 10.0344 8.03787 9.95888 8.40421C9.88338 8.77056 9.70665 9.10839 9.44878 9.37934C9.1909 9.65028 8.86222 9.84348 8.50005 9.93699V15.5C8.50005 15.6326 8.44737 15.7598 8.3536 15.8535C8.25983 15.9473 8.13266 16 8.00005 16C7.86744 16 7.74026 15.9473 7.64649 15.8535C7.55273 15.7598 7.50005 15.6326 7.50005 15.5V9.93699C7.07065 9.82612 6.69028 9.57568 6.41875 9.22505C6.14722 8.87441 5.99993 8.44347 6.00005 7.99999V7.99999Z" fill="#212529"/>
</g>
<defs>
<clipPath id="clip0_32_46136">
<rect width="16" height="16" fill="white"/>
</clipPath>
</defs>
</svg>
