<svg width="16" height="16" viewBox="0 0 16 16" fill="none" xmlns="http://www.w3.org/2000/svg">
<g clip-path="url(#clip0_3_31736)">
<path d="M4.15804 12.025C4.22038 12.0458 4.278 12.0787 4.32763 12.1218C4.37725 12.1648 4.4179 12.2173 4.44724 12.276C4.47659 12.3348 4.49406 12.3988 4.49866 12.4644C4.50326 12.5299 4.4949 12.5957 4.47404 12.658L3.97404 14.158C3.92852 14.2791 3.83787 14.3778 3.72112 14.4334C3.60438 14.4891 3.47062 14.4973 3.34793 14.4564C3.22524 14.4155 3.12317 14.3286 3.06316 14.2141C3.00314 14.0995 2.98983 13.9662 3.02604 13.842L3.52604 12.342C3.56783 12.2162 3.65788 12.1121 3.7764 12.0527C3.89492 11.9932 4.0322 11.9833 4.15804 12.025ZM10.158 12.025C10.2204 12.0458 10.278 12.0787 10.3276 12.1218C10.3772 12.1648 10.4179 12.2173 10.4472 12.276C10.4766 12.3348 10.4941 12.3988 10.4987 12.4644C10.5033 12.5299 10.4949 12.5957 10.474 12.658L9.97404 14.158C9.92852 14.2791 9.83787 14.3778 9.72112 14.4334C9.60438 14.4891 9.47062 14.4973 9.34793 14.4564C9.22524 14.4155 9.12317 14.3286 9.06316 14.2141C9.00314 14.0995 8.98983 13.9662 9.02604 13.842L9.52604 12.342C9.56783 12.2162 9.65788 12.1121 9.7764 12.0527C9.89492 11.9932 10.0322 11.9833 10.158 12.025ZM6.65804 13.525C6.72038 13.5458 6.778 13.5787 6.82763 13.6218C6.87725 13.6648 6.9179 13.7173 6.94724 13.776C6.97659 13.8348 6.99406 13.8988 6.99866 13.9644C7.00326 14.0299 6.9949 14.0957 6.97404 14.158L6.47404 15.658C6.42852 15.7791 6.33787 15.8778 6.22112 15.9334C6.10438 15.9891 5.97062 15.9973 5.84793 15.9564C5.72524 15.9155 5.62317 15.8286 5.56316 15.7141C5.50314 15.5995 5.48983 15.4662 5.52604 15.342L6.02604 13.842C6.06783 13.7162 6.15788 13.6121 6.2764 13.5527C6.39492 13.4932 6.5322 13.4833 6.65804 13.525ZM12.658 13.525C12.7204 13.5458 12.778 13.5787 12.8276 13.6218C12.8772 13.6648 12.9179 13.7173 12.9472 13.776C12.9766 13.8348 12.9941 13.8988 12.9987 13.9644C13.0033 14.0299 12.9949 14.0957 12.974 14.158L12.474 15.658C12.4552 15.7226 12.4235 15.7827 12.3809 15.8348C12.3383 15.8868 12.2857 15.9297 12.2261 15.9609C12.1665 15.9921 12.1013 16.011 12.0342 16.0164C11.9672 16.0218 11.8997 16.0137 11.8359 15.9924C11.7721 15.9711 11.7133 15.9372 11.6629 15.8926C11.6125 15.8481 11.5716 15.7938 11.5427 15.7331C11.5137 15.6724 11.4974 15.6065 11.4945 15.5393C11.4916 15.4721 11.5024 15.405 11.526 15.342L12.026 13.842C12.0678 13.7162 12.1579 13.6121 12.2764 13.5527C12.3949 13.4932 12.5322 13.4833 12.658 13.525ZM13.405 5.02704C13.1974 3.98021 12.6603 3.02725 11.8722 2.30752C11.0842 1.58779 10.0866 1.13903 9.02529 1.02685C7.96396 0.914676 6.89458 1.14497 5.97351 1.68405C5.05243 2.22314 4.32797 3.04275 3.90604 4.02304C3.43288 3.96854 2.95357 4.01118 2.49746 4.14835C2.04135 4.28553 1.61804 4.51435 1.25344 4.82082C0.888843 5.12729 0.590632 5.50495 0.377066 5.93067C0.1635 6.3564 0.0390735 6.82124 0.0114043 7.29672C-0.0162649 7.77221 0.0534056 8.24834 0.21615 8.69597C0.378895 9.14359 0.631289 9.55329 0.957879 9.89998C1.28447 10.2467 1.67838 10.523 2.1155 10.7122C2.55263 10.9014 3.02375 10.9993 3.50004 11H13C13.7612 11.0009 14.4941 10.7125 15.0505 10.1931C15.6069 9.67377 15.9451 8.96236 15.9966 8.203C16.0481 7.44363 15.809 6.69308 15.3278 6.10338C14.8466 5.51368 14.1593 5.12892 13.405 5.02704ZM8.50004 2.00004C9.484 1.99984 10.4335 2.36231 11.167 3.01816C11.9005 3.674 12.3666 4.5772 12.476 5.55504C12.4896 5.6779 12.5483 5.79137 12.6406 5.87355C12.7329 5.95573 12.8524 6.00079 12.976 6.00004H13C13.5305 6.00004 14.0392 6.21076 14.4143 6.58583C14.7893 6.9609 15 7.46961 15 8.00004C15 8.53048 14.7893 9.03919 14.4143 9.41426C14.0392 9.78933 13.5305 10 13 10H3.50004C3.14612 9.99987 2.79626 9.92455 2.47362 9.77906C2.15098 9.63357 1.86291 9.42124 1.62846 9.1561C1.39401 8.89096 1.21853 8.57907 1.11363 8.24104C1.00872 7.90302 0.976788 7.54658 1.01993 7.19529C1.06308 6.844 1.18032 6.50588 1.3639 6.20329C1.54748 5.9007 1.79322 5.64054 2.08486 5.44001C2.3765 5.23949 2.70739 5.10317 3.05565 5.04008C3.40391 4.97699 3.76159 4.98857 4.10504 5.07404C4.22757 5.10461 4.35713 5.08767 4.46768 5.02664C4.57824 4.96561 4.66161 4.86501 4.70105 4.74504C4.96533 3.94622 5.47466 3.25101 6.15666 2.75822C6.83867 2.26544 7.65864 2.00014 8.50004 2.00004Z" fill="#212529"/>
</g>
<defs>
<clipPath id="clip0_3_31736">
<rect width="16" height="16" fill="white"/>
</clipPath>
</defs>
</svg>
