<svg width="16" height="16" viewBox="0 0 16 16" fill="none" xmlns="http://www.w3.org/2000/svg">
<g clip-path="url(#clip0_32_46097)">
<path d="M16.0001 7.50002C16.0001 7.97833 15.863 8.44662 15.6049 8.84934C15.3469 9.25205 14.9787 9.57228 14.5441 9.77202C14.3699 9.46635 14.1508 9.18859 13.8941 8.94802C14.2781 8.84339 14.6048 8.59049 14.8024 8.24496C15 7.89942 15.0522 7.48955 14.9476 7.10552C14.8429 6.72149 14.59 6.39474 14.2445 6.19718C13.899 5.99961 13.4891 5.94739 13.1051 6.05202C13.0359 6.07075 12.9636 6.07442 12.893 6.06278C12.8223 6.05114 12.755 6.02446 12.6955 5.98454C12.6361 5.94462 12.5859 5.8924 12.5484 5.83141C12.5109 5.77042 12.4869 5.70208 12.4781 5.63102C12.4073 5.05834 12.173 4.51821 11.803 4.07537C11.4331 3.63253 10.9433 3.30577 10.3924 3.13426C9.84142 2.96275 9.25271 2.95377 8.69678 3.10839C8.14086 3.26301 7.64133 3.57467 7.25806 4.00602C6.83076 3.98641 6.40262 4.01594 5.98206 4.09402C6.36554 3.38783 6.95275 2.81345 7.66723 2.44564C8.3817 2.07783 9.19036 1.93363 9.98794 2.03182C10.7855 2.13001 11.5351 2.46603 12.139 2.99614C12.7429 3.52625 13.1733 4.22591 13.3741 5.00402C13.7125 4.98694 14.0508 5.03884 14.3686 5.15655C14.6863 5.27427 14.9768 5.45535 15.2224 5.68879C15.468 5.92223 15.6636 6.20317 15.7973 6.51453C15.931 6.82589 15.9999 7.16117 16.0001 7.50002Z" fill="#212529"/>
<path d="M6.99995 5C8.107 4.99979 9.17527 5.40766 10.0005 6.14561C10.8257 6.88356 11.3499 7.89981 11.4729 9H11.4999C12.163 9 12.7989 9.26339 13.2677 9.73223C13.7366 10.2011 13.9999 10.837 13.9999 11.5C13.9999 12.163 13.7366 12.7989 13.2677 13.2678C12.7989 13.7366 12.163 14 11.4999 14H2.99995C2.22531 14.0006 1.48047 13.7015 0.921339 13.1654C0.362213 12.6292 0.0321459 11.8976 0.000230344 11.1236C-0.0316852 10.3496 0.237025 9.59329 0.750112 9.01294C1.2632 8.43258 1.98089 8.07319 2.75295 8.01C3.06197 7.13024 3.63655 6.36814 4.39731 5.82895C5.15808 5.28977 6.06749 5.00012 6.99995 5ZM10.4999 9.5C10.5005 8.64752 10.19 7.82413 9.62657 7.18438C9.06315 6.54462 8.28562 6.13249 7.4399 6.02533C6.59418 5.91818 5.73843 6.12336 5.03326 6.60238C4.32809 7.0814 3.82199 7.80131 3.60995 8.627C3.58126 8.73875 3.5148 8.83714 3.42185 8.90549C3.3289 8.97383 3.21517 9.00793 3.09995 9.002C2.83431 8.99021 2.56898 9.0315 2.31949 9.12347C2.07 9.21544 1.84135 9.35624 1.64693 9.53762C1.4525 9.71901 1.29619 9.93735 1.18715 10.1799C1.07811 10.4224 1.01852 10.6842 1.01187 10.95C1.00522 11.2158 1.05164 11.4803 1.14843 11.728C1.24521 11.9756 1.3904 12.2015 1.57552 12.3924C1.76064 12.5833 1.98196 12.7353 2.22654 12.8397C2.47112 12.944 2.73405 12.9985 2.99995 13H11.4999C11.7126 12.9995 11.9228 12.9538 12.1165 12.8659C12.3101 12.778 12.4829 12.6499 12.6233 12.4901C12.7637 12.3303 12.8685 12.1425 12.9307 11.9392C12.993 11.7358 13.0113 11.5215 12.9845 11.3105C12.9576 11.0996 12.8862 10.8967 12.7749 10.7154C12.6637 10.5342 12.5152 10.3786 12.3392 10.2591C12.1633 10.1396 11.9639 10.0589 11.7544 10.0223C11.5449 9.98577 11.33 9.99418 11.1239 10.047C11.0495 10.0661 10.9716 10.0677 10.8964 10.0518C10.8212 10.0359 10.7507 10.0029 10.6903 9.95527C10.6299 9.90767 10.5814 9.8468 10.5484 9.77738C10.5153 9.70796 10.4988 9.63186 10.4999 9.555V9.5Z" fill="#212529"/>
</g>
<defs>
<clipPath id="clip0_32_46097">
<rect width="16" height="16" fill="white"/>
</clipPath>
</defs>
</svg>
