<svg width="14" height="14" viewBox="0 0 14 14" fill="none" xmlns="http://www.w3.org/2000/svg">
<path d="M10.125 2.25H10.875V4.04289L10.125 3.29289V2.25Z" fill="#00798F" stroke="#00798F"/>
<path fill-rule="evenodd" clip-rule="evenodd" d="M6.38132 1.31252C6.5454 1.14849 6.76792 1.05634 6.99994 1.05634C7.23196 1.05634 7.45448 1.14849 7.61857 1.31252L13.4347 7.12777C13.5168 7.20992 13.563 7.32134 13.563 7.43752C13.563 7.5537 13.5168 7.66512 13.4347 7.74727C13.3525 7.82942 13.2411 7.87558 13.1249 7.87558C13.0088 7.87558 12.8973 7.82942 12.8152 7.74727L6.99994 1.93115L1.18469 7.74727C1.10254 7.82942 0.991121 7.87558 0.874942 7.87558C0.758763 7.87558 0.647343 7.82942 0.565192 7.74727C0.483042 7.66512 0.43689 7.5537 0.43689 7.43752C0.43689 7.32134 0.483042 7.20992 0.565192 7.12777L6.38132 1.31252Z" fill="#00798F"/>
</svg>
