<?xml version="1.0" encoding="UTF-8" standalone="no"?>
<svg
   xmlns:dc="http://purl.org/dc/elements/1.1/"
   xmlns:cc="http://creativecommons.org/ns#"
   xmlns:rdf="http://www.w3.org/1999/02/22-rdf-syntax-ns#"
   xmlns:svg="http://www.w3.org/2000/svg"
   xmlns="http://www.w3.org/2000/svg"
   viewBox="0 0 18.666668 18.666668"
   height="18.666668"
   width="18.666668"
   xml:space="preserve"
   id="svg2"
   version="1.1"><metadata
     id="metadata8"><rdf:RDF><cc:Work
         rdf:about=""><dc:format>image/svg+xml</dc:format><dc:type
           rdf:resource="http://purl.org/dc/dcmitype/StillImage" /></cc:Work></rdf:RDF></metadata><defs
     id="defs6"><clipPath
       id="clipPath22"
       clipPathUnits="userSpaceOnUse"><path
         style="clip-rule:evenodd"
         id="path20"
         d="M 1.75,2.1875 V 7.875 H 2.625 V 2.1875 C 2.625,2.071467 2.671094,1.960188 2.753141,1.87814 2.835188,1.796093 2.946468,1.75 3.0625,1.75 h 7.875 c 0.116033,0 0.227312,0.046093 0.30936,0.12814 C 11.32891,1.960188 11.375,2.071467 11.375,2.1875 V 7.875 H 12.25 V 2.1875 C 12.25,1.839403 12.111719,1.505564 11.865578,1.259422 11.619436,1.013281 11.285597,0.875 10.9375,0.875 H 3.0625 C 2.714403,0.875 2.380564,1.013281 2.134422,1.259422 1.888281,1.505564 1.75,1.839403 1.75,2.1875 Z m 9.625,9.625 V 8.75 l -1.75,1.75 v 1.3125 c 0,0.116032 0.046093,0.227312 0.12814,0.309359 C 9.835188,12.203906 9.946467,12.25 10.0625,12.25 h 0.875 c 0.116033,0 0.227312,-0.04609 0.30936,-0.128141 0.08205,-0.08205 0.12814,-0.193327 0.12814,-0.309359 z" /></clipPath></defs><g
     transform="matrix(1.3333333,0,0,-1.3333333,0,18.666667)"
     id="g10"><g
       id="g12"><g
         transform="translate(1.75,0.875)"
         id="g14"><path
           id="path16"
           style="fill:#00798f;fill-opacity:1;fill-rule:evenodd;stroke:none"
           d="M 0,1.3125 V 7 H 0.875 V 1.3125 C 0.875,1.196467 0.921094,1.085188 1.003141,1.00314 1.085188,0.921093 1.196468,0.875 1.3125,0.875 h 7.875 c 0.116033,0 0.227312,0.046093 0.30936,0.12814 C 9.578907,1.085188 9.625,1.196467 9.625,1.3125 V 7 H 10.5 V 1.3125 C 10.5,0.964403 10.361719,0.630564 10.115578,0.384422 9.869436,0.138281 9.535597,0 9.1875,0 H 1.3125 C 0.964403,0 0.630564,0.138281 0.384422,0.384422 0.138281,0.630564 0,0.964403 0,1.3125 Z m 9.625,9.625 V 7.875 l -1.75,1.75 v 1.3125 c 0,0.116033 0.046093,0.227312 0.12814,0.30936 0.082048,0.08205 0.193327,0.12814 0.30936,0.12814 h 0.875 c 0.116033,0 0.227312,-0.04609 0.30936,-0.12814 C 9.578907,11.164812 9.625,11.053533 9.625,10.9375 Z" /></g><g
         clip-path="url(#clipPath22)"
         id="g18"><g
           transform="translate(1.75,0.875)"
           id="g24"><path
             id="path26"
             style="fill:#00798f;fill-opacity:1;fill-rule:nonzero;stroke:none"
             d="M 0,7 V 8 H -1 V 7 Z m 0.875,0 h 1 v 1 h -1 z m 8.75,0 v 1 h -1 V 7 Z M 10.5,7 h 1 v 1 h -1 z m 0,-5.6875 h 1 z M 9.1875,0 V -1 Z M 1.3125,0 V -1 Z M 9.625,7.875 8.917893,7.167893 10.625,5.460786 V 7.875 Z m -1.75,1.75 h -1 V 9.210787 L 7.167893,8.917893 Z m 0.4375,1.75 v -1 z M 1,1.3125 V 7 H -1 V 1.3125 Z M 0,6 H 0.875 V 8 H 0 Z M -0.125,7 V 1.3125 h 2 V 7 Z m 0,-5.6875 c 0,-0.381248 0.15145,-0.746882 0.421034,-1.016466 L 1.710248,1.710247 C 1.815737,1.604758 1.875,1.461684 1.875,1.3125 Z M 0.296034,0.296034 C 0.565619,0.026449 0.931253,-0.125 1.3125,-0.125 v 2 c 0.149183,0 0.292257,-0.059262 0.397748,-0.164753 z M 1.3125,-0.125 h 7.875 v 2 h -7.875 z m 7.875,0 c 0.381246,0 0.746881,0.151448 1.016466,0.421034 L 8.789753,1.710247 C 8.895244,1.815739 9.038319,1.875 9.1875,1.875 Z m 1.016466,0.421034 C 10.473552,0.565619 10.625,0.931254 10.625,1.3125 h -2 c 0,0.149181 0.059261,0.292256 0.164753,0.397747 z M 10.625,1.3125 V 7 h -2 V 1.3125 Z M 9.625,6 H 10.5 V 8 H 9.625 Z M 9.5,7 V 1.3125 h 2 V 7 Z m 0,-5.6875 C 9.5,1.229619 9.467076,1.150134 9.408471,1.091529 l 1.414213,-1.414213 C 11.256363,0.110993 11.5,0.699187 11.5,1.3125 Z M 9.408471,1.091529 C 9.349866,1.032924 9.270381,1 9.1875,1 v -2 c 0.613313,0 1.201507,0.243637 1.635184,0.677316 z M 9.1875,1 h -7.875 v -2 h 7.875 z M 1.3125,1 C 1.22962,1 1.150134,1.032924 1.091529,1.091529 L -0.322684,-0.322684 C 0.110994,-0.756363 0.699187,-1 1.3125,-1 Z M 1.091529,1.091529 C 1.032924,1.150134 1,1.22962 1,1.3125 h -2 c 0,-0.613313 0.243638,-1.201507 0.677316,-1.635184 z M 8.625,10.9375 V 7.875 h 2 v 3.0625 z m 1.707107,-2.355393 -1.75,1.75 -1.414214,-1.414214 1.75,-1.75 z M 8.875,9.625 v 1.3125 h -2 V 9.625 Z m 0,1.3125 c 0,-0.149182 -0.059262,-0.292257 -0.164753,-0.397748 L 7.296034,11.953966 C 7.026449,11.684381 6.875,11.318747 6.875,10.9375 Z M 8.710247,10.539752 C 8.604758,10.434263 8.461684,10.375 8.3125,10.375 v 2 c -0.381248,0 -0.746882,-0.15145 -1.016466,-0.421034 z M 8.3125,10.375 h 0.875 v 2 h -0.875 z m 0.875,0 c -0.149184,0 -0.292258,0.05926 -0.397747,0.164752 l 1.414213,1.414214 C 9.934382,12.22355 9.568748,12.375 9.1875,12.375 Z M 8.789753,10.539752 C 8.684262,10.645243 8.625,10.788318 8.625,10.9375 h 2 c 0,0.381247 -0.151449,0.746881 -0.421034,1.016466 z" /></g></g></g><g
       transform="translate(0.43689,6.124451)"
       id="g28"><path
         id="path30"
         style="fill:#00798f;fill-opacity:1;fill-rule:evenodd;stroke:none"
         d="m 5.944427,6.563025 c 0.164087,0.164038 0.386607,0.256189 0.618625,0.256189 0.232019,0 0.454538,-0.092151 0.618625,-0.256189 l 5.816125,-5.815249 c 0.08215,-0.082151 0.128302,-0.193572 0.128302,-0.309751 0,-0.116178 -0.04615,-0.227599 -0.128302,-0.30975 -0.08215,-0.08215 -0.193571,-0.128302 -0.309751,-0.128302 -0.116178,0 -0.227599,0.046152 -0.309749,0.128302 L 6.563052,5.944401 0.747803,0.128275 C 0.665652,0.046125 0.554231,-2.7e-5 0.438053,-2.7e-5 c -0.116179,0 -0.2276,0.046152 -0.30975,0.128302 C 0.046152,0.210426 0,0.321847 0,0.438025 c 0,0.116179 0.046152,0.2276 0.128303,0.309751 z" /></g></g></svg>