<svg width="8" height="16" viewBox="0 0 8 16" fill="none" xmlns="http://www.w3.org/2000/svg">
<path d="M1.5 2.5C1.5 1.83696 1.76339 1.20107 2.23223 0.732233C2.70108 0.263392 3.33696 0 4 0C4.66304 0 5.29893 0.263392 5.76777 0.732233C6.23661 1.20107 6.5 1.83696 6.5 2.5V10.05C6.98234 10.5423 7.3086 11.166 7.43788 11.843C7.56715 12.5199 7.49369 13.22 7.2267 13.8554C6.95971 14.4907 6.51108 15.0332 5.93707 15.4146C5.36305 15.796 4.68919 15.9995 4 15.9995C3.31081 15.9995 2.63695 15.796 2.06294 15.4146C1.48892 15.0332 1.04029 14.4907 0.773299 13.8554C0.506311 13.22 0.43285 12.5199 0.562128 11.843C0.691405 11.166 1.01767 10.5423 1.5 10.05V2.5ZM4 1C3.60218 1 3.22065 1.15804 2.93934 1.43934C2.65804 1.72064 2.5 2.10218 2.5 2.5V10.487L2.333 10.637C1.95557 10.9745 1.68953 11.4187 1.57007 11.9107C1.45062 12.4028 1.48338 12.9195 1.66403 13.3925C1.84468 13.8655 2.1647 14.2725 2.58174 14.5597C2.99877 14.8468 3.49317 15.0005 3.9995 15.0005C4.50583 15.0005 5.00023 14.8468 5.41727 14.5597C5.83431 14.2725 6.15432 13.8655 6.33497 13.3925C6.51562 12.9195 6.54839 12.4028 6.42893 11.9107C6.30947 11.4187 6.04343 10.9745 5.666 10.637L5.5 10.487V2.5C5.5 2.10218 5.34197 1.72064 5.06066 1.43934C4.77936 1.15804 4.39783 1 4 1Z" fill="#212529"/>
</svg>
