<svg width="16" height="9" viewBox="0 0 16 9" fill="none" xmlns="http://www.w3.org/2000/svg">
<path d="M8 1.5C6.14348 1.5 4.36301 2.2375 3.05025 3.55025C1.7375 4.86301 1 6.64348 1 8.5C1 8.63261 0.947322 8.75979 0.853553 8.85355C0.759785 8.94732 0.632608 9 0.5 9C0.367392 9 0.240215 8.94732 0.146447 8.85355C0.0526784 8.75979 0 8.63261 0 8.5C0 6.37827 0.842855 4.34344 2.34315 2.84315C3.84344 1.34285 5.87827 0.5 8 0.5C10.1217 0.5 12.1566 1.34285 13.6569 2.84315C15.1571 4.34344 16 6.37827 16 8.5C16 8.63261 15.9473 8.75979 15.8536 8.85355C15.7598 8.94732 15.6326 9 15.5 9C15.3674 9 15.2402 8.94732 15.1464 8.85355C15.0527 8.75979 15 8.63261 15 8.5C15 6.64348 14.2625 4.86301 12.9497 3.55025C11.637 2.2375 9.85652 1.5 8 1.5ZM8 3.5C6.67392 3.5 5.40215 4.02678 4.46447 4.96447C3.52678 5.90215 3 7.17392 3 8.5C3 8.63261 2.94732 8.75979 2.85355 8.85355C2.75979 8.94732 2.63261 9 2.5 9C2.36739 9 2.24021 8.94732 2.14645 8.85355C2.05268 8.75979 2 8.63261 2 8.5C2 7.71207 2.15519 6.93185 2.45672 6.2039C2.75825 5.47595 3.20021 4.81451 3.75736 4.25736C4.31451 3.70021 4.97595 3.25825 5.7039 2.95672C6.43185 2.65519 7.21207 2.5 8 2.5C8.78793 2.5 9.56815 2.65519 10.2961 2.95672C11.0241 3.25825 11.6855 3.70021 12.2426 4.25736C12.7998 4.81451 13.2417 5.47595 13.5433 6.2039C13.8448 6.93185 14 7.71207 14 8.5C14 8.63261 13.9473 8.75979 13.8536 8.85355C13.7598 8.94732 13.6326 9 13.5 9C13.3674 9 13.2402 8.94732 13.1464 8.85355C13.0527 8.75979 13 8.63261 13 8.5C13 7.17392 12.4732 5.90215 11.5355 4.96447C10.5979 4.02678 9.32608 3.5 8 3.5ZM8 5.5C7.20435 5.5 6.44129 5.81607 5.87868 6.37868C5.31607 6.94129 5 7.70435 5 8.5C5 8.63261 4.94732 8.75979 4.85355 8.85355C4.75979 8.94732 4.63261 9 4.5 9C4.36739 9 4.24021 8.94732 4.14645 8.85355C4.05268 8.75979 4 8.63261 4 8.5C4 7.43913 4.42143 6.42172 5.17157 5.67157C5.92172 4.92143 6.93913 4.5 8 4.5C9.06087 4.5 10.0783 4.92143 10.8284 5.67157C11.5786 6.42172 12 7.43913 12 8.5C12 8.63261 11.9473 8.75979 11.8536 8.85355C11.7598 8.94732 11.6326 9 11.5 9C11.3674 9 11.2402 8.94732 11.1464 8.85355C11.0527 8.75979 11 8.63261 11 8.5C11 7.70435 10.6839 6.94129 10.1213 6.37868C9.55871 5.81607 8.79565 5.5 8 5.5ZM8 7.5C7.73478 7.5 7.48043 7.60536 7.29289 7.79289C7.10536 7.98043 7 8.23478 7 8.5C7 8.63261 6.94732 8.75979 6.85355 8.85355C6.75979 8.94732 6.63261 9 6.5 9C6.36739 9 6.24021 8.94732 6.14645 8.85355C6.05268 8.75979 6 8.63261 6 8.5C6 7.96957 6.21071 7.46086 6.58579 7.08579C6.96086 6.71071 7.46957 6.5 8 6.5C8.53043 6.5 9.03914 6.71071 9.41421 7.08579C9.78929 7.46086 10 7.96957 10 8.5C10 8.63261 9.94732 8.75979 9.85355 8.85355C9.75979 8.94732 9.63261 9 9.5 9C9.36739 9 9.24021 8.94732 9.14645 8.85355C9.05268 8.75979 9 8.63261 9 8.5C9 8.23478 8.89464 7.98043 8.70711 7.79289C8.51957 7.60536 8.26522 7.5 8 7.5Z" fill="#212529"/>
</svg>
