<svg width="1280" height="720" xmlns="http://www.w3.org/2000/svg" xmlns:xlink="http://www.w3.org/1999/xlink" overflow="hidden"><defs><clipPath id="clip0"><rect x="0" y="0" width="1280" height="720"/></clipPath><clipPath id="clip1"><rect x="51" y="102" width="258" height="516"/></clipPath><clipPath id="clip2"><rect x="51" y="102" width="258" height="516"/></clipPath><clipPath id="clip3"><rect x="51" y="102" width="258" height="516"/></clipPath><clipPath id="clip4"><rect x="415" y="177" width="275" height="366"/></clipPath><clipPath id="clip5"><rect x="415" y="177" width="275" height="366"/></clipPath><clipPath id="clip6"><rect x="415" y="177" width="275" height="366"/></clipPath><clipPath id="clip7"><rect x="796" y="256" width="371" height="208"/></clipPath><clipPath id="clip8"><rect x="796" y="256" width="371" height="208"/></clipPath><clipPath id="clip9"><rect x="796" y="256" width="371" height="208"/></clipPath></defs><g clip-path="url(#clip0)"><rect x="0" y="0" width="1280" height="720" fill="#FFFFFF"/><g clip-path="url(#clip1)"><g clip-path="url(#clip2)"><g clip-path="url(#clip3)"><path d="M99.375 182.625C99.375 161.242 107.869 140.734 122.989 125.615 138.11 110.494 158.617 102 180 102 201.383 102 221.891 110.494 237.011 125.615 252.131 140.734 260.625 161.242 260.625 182.625L260.625 426.113C276.18 441.989 286.702 462.104 290.872 483.937 295.041 505.767 292.672 528.345 284.061 548.837 275.451 569.325 260.982 586.821 242.471 599.121 223.958 611.421 202.226 617.984 180 617.984 157.774 617.984 136.042 611.421 117.53 599.121 99.0177 586.821 84.5493 569.325 75.9389 548.837 67.3285 528.345 64.9594 505.767 69.1286 483.937 73.2978 462.104 83.8199 441.989 99.375 426.113L99.375 182.625ZM180 134.25C167.17 134.25 154.866 139.347 145.794 148.419 136.722 157.491 131.625 169.795 131.625 182.625L131.625 440.206 126.239 445.043C114.067 455.928 105.487 470.253 101.635 486.12 97.7825 501.99 98.839 518.654 104.665 533.908 110.491 549.162 120.812 562.288 134.261 571.55 147.71 580.809 163.655 585.766 179.984 585.766 196.313 585.766 212.257 580.809 225.707 571.55 239.156 562.288 249.477 549.162 255.303 533.908 261.129 518.654 262.186 501.99 258.333 486.12 254.48 470.253 245.901 455.928 233.729 445.043L228.375 440.206 228.375 182.625C228.375 169.795 223.279 157.491 214.206 148.419 205.134 139.347 192.83 134.25 180 134.25Z" fill="#212529"/></g></g></g><g clip-path="url(#clip4)"><g clip-path="url(#clip5)"><g clip-path="url(#clip6)"><path d="M119.179 18.3C130.159 6.74812 137.25 0 137.25 0 139.743 8.30363 142.603 16.1955 145.737 23.7442 164.311 68.259 193.157 100.376 218.868 128.969 248.834 162.321 274.5 190.892 274.5 228.75 274.5 265.151 260.041 300.061 234.299 325.799 208.561 351.541 173.651 366 137.25 366 100.849 366 65.939 351.541 40.1996 325.799 14.4602 300.061 5.42417e-07 265.151 0 228.75 0 152.531 81.8925 57.5764 119.179 18.3ZM128.626 41.6554C113.936 57.5521 99.9754 74.1077 86.7878 91.2712 70.1805 113.003 53.9393 137.204 41.9528 161.497 29.829 186.042 22.875 209.032 22.875 228.75 22.875 259.085 34.9251 288.177 56.3747 309.625 77.8242 331.074 106.916 343.125 137.25 343.125 167.584 343.125 196.676 331.074 218.125 309.625 239.574 288.177 251.625 259.085 251.625 228.75 251.625 201.277 233.417 179.409 201.735 144.113L201.048 143.381C177.281 116.891 148.688 85.095 128.626 41.6325L128.626 41.6554Z" fill="#212529" fill-rule="evenodd" transform="matrix(1.00182 0 0 1 415 177)"/></g></g></g><g clip-path="url(#clip7)"><g clip-path="url(#clip8)"><g clip-path="url(#clip9)"><path d="M184.889 34.6667C141.983 34.6667 100.834 51.7111 70.4947 82.0502 40.1556 112.39 23.1111 153.538 23.1111 196.444 23.1111 199.509 21.8937 202.448 19.7266 204.615 17.5595 206.783 14.6203 208 11.5556 208 8.49084 208 5.55164 206.783 3.38455 204.615 1.21746 202.448 0 199.509 0 196.444 0 147.409 19.4793 100.382 54.1528 65.7084 88.8262 31.0348 135.853 11.5556 184.889 11.5556 233.924 11.5556 280.953 31.0348 315.626 65.7084 350.297 100.382 369.778 147.409 369.778 196.444 369.778 199.509 368.56 202.448 366.394 204.615 364.226 206.783 361.287 208 358.222 208 355.158 208 352.218 206.783 350.05 204.615 347.885 202.448 346.667 199.509 346.667 196.444 346.667 153.538 329.622 112.39 299.282 82.0502 268.944 51.7111 227.795 34.6667 184.889 34.6667ZM184.889 80.8889C154.242 80.8889 124.85 93.0634 103.179 114.734 81.5078 136.405 69.3333 165.797 69.3333 196.444 69.3333 199.509 68.1158 202.448 65.9487 204.615 63.7818 206.783 60.8425 208 57.7778 208 54.713 208 51.7737 206.783 49.6068 204.615 47.4397 202.448 46.2222 199.509 46.2222 196.444 46.2222 178.234 49.8088 160.203 56.7775 143.379 63.7462 126.555 73.9604 111.269 86.8368 98.3923 99.7131 85.516 115 75.3018 131.823 68.3331 148.647 61.3644 166.679 57.7778 184.889 57.7778 203.099 57.7778 221.131 61.3644 237.954 68.3331 254.779 75.3018 270.065 85.516 282.94 98.3923 295.818 111.269 306.03 126.555 313.001 143.379 319.969 160.203 323.556 178.234 323.556 196.444 323.556 199.509 322.338 202.448 320.172 204.615 318.004 206.783 315.065 208 312 208 308.935 208 305.996 206.783 303.828 204.615 301.662 202.448 300.444 199.509 300.444 196.444 300.444 165.797 288.27 136.405 266.598 114.734 244.929 93.0634 215.536 80.8889 184.889 80.8889ZM184.889 127.111C166.501 127.111 148.865 134.416 135.863 147.418 122.86 160.421 115.556 178.056 115.556 196.444 115.556 199.509 114.338 202.448 112.171 204.615 110.004 206.783 107.065 208 104 208 100.935 208 97.996 206.783 95.8291 204.615 93.6619 202.448 92.4444 199.509 92.4444 196.444 92.4444 171.927 102.184 148.413 119.521 131.076 136.858 113.74 160.371 104 184.889 104 209.407 104 232.921 113.74 250.256 131.076 267.594 148.413 277.333 171.927 277.333 196.444 277.333 199.509 276.115 202.448 273.95 204.615 271.782 206.783 268.842 208 265.778 208 262.713 208 259.773 206.783 257.606 204.615 255.44 202.448 254.222 199.509 254.222 196.444 254.222 178.056 246.917 160.421 233.914 147.418 220.912 134.416 203.277 127.111 184.889 127.111ZM184.889 173.333C178.759 173.333 172.881 175.768 168.547 180.102 164.213 184.437 161.778 190.315 161.778 196.444 161.778 199.509 160.56 202.448 158.393 204.615 156.226 206.783 153.287 208 150.222 208 147.157 208 144.218 206.783 142.051 204.615 139.884 202.448 138.667 199.509 138.667 196.444 138.667 184.186 143.536 172.429 152.205 163.76 160.873 155.092 172.63 150.222 184.889 150.222 197.148 150.222 208.905 155.092 217.573 163.76 226.241 172.429 231.111 184.186 231.111 196.444 231.111 199.509 229.894 202.448 227.726 204.615 225.56 206.783 222.62 208 219.556 208 216.491 208 213.552 206.783 211.385 204.615 209.217 202.448 208 199.509 208 196.444 208 190.315 205.565 184.437 201.231 180.102 196.897 175.768 191.018 173.333 184.889 173.333Z" fill="#212529" transform="matrix(1.00331 0 0 1 796 256)"/></g></g></g></g></svg>